<?xml version="1.0"?>
<svg xmlns="http://www.w3.org/2000/svg" xmlns:xlink="http://www.w3.org/1999/xlink" version="1.1" id="Capa_1" x="0px" y="0px" viewBox="0 0 512 512" style="enable-background:new 0 0 512 512;" xml:space="preserve" width="512px" height="512px"><g><g>
	<g>
		<g>
			<path d="M309.546,363.541c-32.741-13.602-66.13-24.006-88.557-8.173c-13.222,9.333-19.347,25.099-18.207,46.858     c0.768,14.646,5.816,40.624,31.015,50.041c17.58,6.572,38.096,1.804,55.293-5.887c14.579-6.521,29.391-16.319,37.735-24.965     c11.536-11.954,11.166-23.818,9.919-29.826C334.29,379.77,324.631,369.809,309.546,363.541z M247.8,414.799     c-4.073-1.522-4.912-11.609-5.072-14.664c-0.454-8.672,1.099-11.638,1.398-12.121c0.557-0.254,4.167-1.594,14.434,0.475     c8.405,1.694,18.873,5.144,32.772,10.812C278.414,408.647,256.806,418.166,247.8,414.799z" data-original="#000000" class="active-path" data-old_color="#000000" fill="#E3E9ED"/>
			<path d="M256,0C114.517,0,0,114.497,0,256c0,141.483,114.497,256,256,256c141.483,0,256-114.497,256-256     C512,114.517,397.503,0,256,0z M256,40c67.356,0,127.39,30.498,167.537,79.636c-42.197,5.419-87.801-12.474-135.088-20.945     c-8.152-1.461-17.705-2.823-27.935-0.504c-11.036,2.503-21.282,9.01-29.631,18.818c-23.881,28.06-21.401,65.42-15.164,101.615     c4.777,27.725,8.04,53.982-4.356,70.562c-2.628,3.516-2.899,3.886-8.939,3.327c-21.106-1.951-43.17-15.433-67.452-41.215     c-26.026-27.632-48.472-60.109-72.442-91.572C97.962,88.689,171.224,40,256,40z M256,472c-119.378,0-216-96.608-216-216     c0-17.574,2.096-34.824,6.148-51.475c18.961,25.477,37.827,50.966,59.704,74.194c31.262,33.193,61.646,50.732,92.89,53.62     c19.214,1.775,33.153-3.818,44.657-19.205c23.729-31.736,16.514-73.603,11.739-101.307c-4.586-26.608-7.007-53.372,6.206-68.896     c2.625-3.085,5.547-5.175,8.016-5.734c2.933-0.666,7.749,0.1,12.035,0.867c52.976,9.491,107.297,32.567,166.03,17.677     c10.789,20.541,18.168,42.722,21.848,65.841c-18.642,9.361-44.625,17.208-75.814,12.948     c-39.983-5.458-68.803,4.034-79.054,26.038c-13.191,28.325,10.949,58.255,33.983,79.129     c26.09,23.644,54.846,36.984,79.369,47.315C387.371,439.738,325.179,472,256,472z M375.251,310.059     c-20.224-18.327-24.487-29.532-24.49-32.602c2.017-1.797,12.775-6.641,37.291-3.294c32.929,4.492,61.313-1.236,83.781-9.984     c-1.154,31.191-8.884,61.22-22.549,88.479C425.328,342.702,398.555,331.179,375.251,310.059z" data-original="#000000" class="active-path" data-old_color="#000000" fill="#E3E9ED"/>
		</g>
	</g>
</g></g> </svg>
