<?xml version="1.0"?>
<svg xmlns="http://www.w3.org/2000/svg" id="Layer_1" enable-background="new 0 0 496 496" height="512px" viewBox="0 0 496 496" width="512px"><g><path d="m333.065 283.134c33.823-40.332 54.935-98.846 54.935-143.134 0-77.196-62.804-140-140-140s-140 62.804-140 140c0 44.288 21.112 102.802 54.935 143.134-50.589 2.642-90.935 44.631-90.935 95.866v101c0 8.836 7.163 16 16 16s16-7.164 16-16v-101c0-35.29 28.71-64 64-64h30.706c32.138 19.986 66.397 20.019 98.588 0h30.706c35.29 0 64 28.71 64 64v101c0 8.836 7.163 16 16 16s16-7.164 16-16v-101c0-51.235-40.346-93.224-90.935-95.866zm-193.065-143.134c0-59.551 48.448-108 108-108s108 48.449 108 108c0 61.829-51.063 158-108 158-56.889 0-108-96.077-108-158zm46 263v77c0 8.836-7.163 16-16 16s-16-7.164-16-16v-77c0-8.836 7.163-16 16-16s16 7.164 16 16zm156 0v77c0 8.836-7.163 16-16 16s-16-7.164-16-16v-77c0-8.836 7.163-16 16-16s16 7.164 16 16zm-104-219c0 8.836-7.163 16-16 16-28.673 0-52-23.327-52-52 0-8.836 7.163-16 16-16 28.673 0 52 23.327 52 52zm36 16c-8.837 0-16-7.164-16-16 0-28.673 23.327-52 52-52 8.837 0 16 7.164 16 16 0 28.673-23.327 52-52 52z" data-original="#000000" class="active-path" data-old_color="#000000" fill="#E3E9ED"/></g> </svg>
